<svg width="1563" height="1561" viewBox="0 0 1563 1561" fill="none" xmlns="http://www.w3.org/2000/svg">
<g clip-path="url(#clip0_970_2)">
<path fill-rule="evenodd" clip-rule="evenodd" d="M1562.09 777.801C1562.09 1208.76 1209.48 1558.12 778.52 1558.12C634.156 1558.12 498.948 1518.92 382.961 1450.58C371.743 1448.49 352.876 1452.66 344.664 1455.07C300.413 1465.3 247.313 1479.87 226.291 1485.87C153.141 1497.95 117.46 1492.92 97.6484 1480.29C81.2528 1469.84 85.1589 1457.06 85.7607 1455.07C87.7462 1448.48 90.9532 1445.49 97.3565 1439.53C105.486 1431.96 119.492 1420.67 141.974 1390.02C172.11 1344.64 179.007 1293.93 177.309 1272.65C66.7346 1137.99 0.359375 965.644 0.359375 777.801C0.359375 346.841 347.561 0 778.52 0C1209.48 0 1562.09 346.841 1562.09 777.801ZM778.52 1372.55C1105.4 1372.55 1375.79 1104.68 1375.79 777.801C1375.79 450.923 1105.4 185.937 778.52 185.937C451.642 185.937 186.657 450.923 186.657 777.801C186.657 1104.68 451.642 1372.55 778.52 1372.55Z" fill="#6772E5" fill-opacity="0.15"/>
<path fill-rule="evenodd" clip-rule="evenodd" d="M1287.16 186.989C1150.81 70.4038 973.788 0 780.323 0C349.363 0 0 349.363 0 780.323C0 968.166 66.3752 1140.51 176.95 1275.17C178.651 1296.46 169.765 1344.1 139.629 1389.48C117.148 1420.13 103.862 1432.5 95.7324 1440.07C89.3291 1446.03 86.122 1449.02 84.1365 1455.61C83.5347 1457.6 83.0591 1472.36 99.4511 1482.81C119.263 1495.44 154.944 1500.47 228.094 1488.4C249.116 1482.39 302.216 1467.82 346.466 1457.59C354.679 1455.18 373.546 1451.02 384.764 1453.1C500.751 1521.44 635.959 1560.65 780.323 1560.65C988.706 1560.65 1178.01 1478.96 1317.97 1345.87C1317.96 1345.87 1317.96 1345.88 1317.95 1345.88C1328.62 1332.48 1330.93 1312.85 1331.47 1306.42C1333.8 1252.26 1281.14 1227.53 1270.89 1222.71L1270.75 1222.64C1238.72 1207.59 1183.4 1220.26 1162.76 1232.06C1059.61 1319.47 926.121 1372.19 780.323 1372.19C453.445 1372.19 188.459 1107.2 188.459 780.323C188.459 453.445 453.445 188.459 780.323 188.459C912.764 188.459 1035.05 231.96 1133.66 305.456C1133.29 305.07 1132.92 304.688 1132.56 304.31C1141.93 311.697 1172.74 330.226 1228.95 309.355C1254.75 299.777 1295.61 266.834 1299.76 244.673C1303.46 224.89 1294.86 200.322 1287.16 186.989Z" fill="#6772E5"/>
<path d="M1062.47 888.966C1123.87 888.966 1173.64 839.196 1173.64 777.801C1173.64 716.405 1123.87 666.635 1062.47 666.635C1001.08 666.635 951.305 716.405 951.305 777.801C951.305 839.196 1001.08 888.966 1062.47 888.966Z" fill="#6772E5" fill-opacity="0.7"/>
<path d="M778.521 888.966C839.917 888.966 889.687 839.196 889.687 777.801C889.687 716.405 839.917 666.635 778.521 666.635C717.126 666.635 667.355 716.405 667.355 777.801C667.355 839.196 717.126 888.966 778.521 888.966Z" fill="#6772E5" fill-opacity="0.5"/>
<path d="M494.572 888.966C555.967 888.966 605.738 839.196 605.738 777.801C605.738 716.405 555.967 666.635 494.572 666.635C433.177 666.635 383.406 716.405 383.406 777.801C383.406 839.196 433.177 888.966 494.572 888.966Z" fill="#6772E5" fill-opacity="0.35"/>
</g>
<defs>
<clipPath id="clip0_970_2">
<rect width="1562.09" height="1560.65" fill="white"/>
</clipPath>
</defs>
</svg>
